<svg width="649" height="90" viewBox="0 0 649 90" fill="none" xmlns="http://www.w3.org/2000/svg">
<path d="M493.253 71.5602H486.104L460.545 7.49462C459.669 5.28435 458.162 3.39007 456.217 2.05485C454.273 0.719502 451.979 0.00402307 449.63 0.000154965H433.771C432.229 -0.00782301 430.702 0.292317 429.275 0.883292C427.848 1.47439 426.55 2.34471 425.454 3.44471C424.359 4.54482 423.488 5.85285 422.891 7.29444C422.294 8.73592 421.983 10.2827 421.975 11.8462V89.4502H439.848V17.8902H446.997L472.544 81.9557C473.434 84.1618 474.953 86.0483 476.906 87.3746C478.858 88.701 481.156 89.4067 483.506 89.4018H499.366C500.908 89.4098 502.435 89.1098 503.861 88.5187C505.289 87.9277 506.586 87.0573 507.683 85.9573C508.778 84.8573 509.649 83.5491 510.246 82.1077C510.843 80.6661 511.154 79.1194 511.162 77.5557V0.000154965H493.253V71.5602Z" fill="white"/>
<path d="M70.3785 0.000261651H17.9504C15.6388 -0.0124306 13.3486 0.436753 11.2086 1.32219C9.06857 2.20774 7.12156 3.51214 5.47841 5.16104C3.83527 6.80995 2.52818 8.77108 1.63213 10.9323C0.736088 13.0936 0.267775 15.4127 0.255859 17.7573V89.4503H18.1291V60.0648H70.1998V89.4503H88.073V17.7573C88.0611 15.4127 87.5928 13.0936 86.6967 10.9323C85.8007 8.77108 84.4936 6.80995 82.8504 5.16104C81.2073 3.51214 79.2603 2.20774 77.1203 1.32219C74.9802 0.436753 72.6901 -0.0124306 70.3785 0.000261651ZM70.1998 42.1747H18.01V17.8903H70.1998V42.1747Z" fill="white"/>
<path d="M631.306 0.000261651H578.878C576.567 -0.0124306 574.276 0.436753 572.136 1.32219C569.996 2.20774 568.049 3.51214 566.406 5.16104C564.763 6.80995 563.456 8.77108 562.56 10.9323C561.664 13.0936 561.196 15.4127 561.184 17.7573V89.4503H579.057V60.0648H631.127V89.4503H649.001V17.7573C648.989 15.4127 648.52 13.0936 647.624 10.9323C646.728 8.77108 645.421 6.80995 643.778 5.16104C642.135 3.51214 640.188 2.20774 638.048 1.32219C635.908 0.436753 633.618 -0.0124306 631.306 0.000261651ZM631.127 42.1747H578.938V17.8903H631.127V42.1747Z" fill="white"/>
<path d="M166.078 89.4557L139.832 56.5783H121.42V89.4557H102.615V0.0430156H163.207C174.96 0.0430156 183.71 8.6453 183.71 20.368V35.3471C183.71 46.2883 175.352 55.406 164.513 56.448L190.644 89.4557H166.078ZM121.42 18.0235V37.6916H159.029C160.596 37.6916 162.032 37.1706 163.207 35.9983C164.252 34.9563 164.905 33.3933 164.905 31.8303V23.8849C164.905 22.3218 164.252 20.889 163.207 19.7168C162.032 18.5445 160.596 18.0235 159.029 18.0235H121.42Z" fill="white"/>
<path d="M282.767 0.0430156H309.984V89.4557H291.179V31.9605L266.76 86.7969H243.776L219.487 31.9605V89.4557H200.683V0.0430156H227.493L255.268 65.4354L282.767 0.0430156Z" fill="white"/>
<path d="M344.59 71.5573H406.88V89.4557H325.786V0.0430156H405.705V18.0235H344.59V35.3471H402.179V54.2337H344.59V71.5573Z" fill="white"/>
<path d="M526.002 89.4557V0.0430156L544.806 0.0429688V89.4557H526.002Z" fill="white"/>
</svg>
