<svg width="18" height="18" viewBox="0 0 18 18" fill="none" xmlns="http://www.w3.org/2000/svg">
<g clip-path="url(#clip0_280_1199)">
<path d="M1.16657 18.0143C0.868044 18.0143 0.5693 17.9 0.342093 17.6726C-0.114031 17.2167 -0.114031 16.4796 0.342093 16.0237L16.009 0.356581C16.4649 -0.0993291 17.202 -0.0993291 17.6579 0.356581C18.114 0.812491 18.114 1.54963 17.6579 2.00554L1.99106 17.6726C1.76235 17.9011 1.4651 18.0143 1.16657 18.0143Z" fill="white"/>
<path d="M16.8334 18.0143C16.5349 18.0143 16.2364 17.9 16.009 17.6726L0.342093 2.00554C-0.114031 1.54963 -0.114031 0.812491 0.342093 0.356581C0.798003 -0.0993291 1.53493 -0.0993291 1.99106 0.356581L17.6579 16.0237C18.114 16.4796 18.114 17.2167 17.6579 17.6726C17.4305 17.9011 17.132 18.0143 16.8334 18.0143Z" fill="white"/>
</g>
<defs>
<clipPath id="clip0_280_1199">
<rect width="18" height="18" fill="white"/>
</clipPath>
</defs>
</svg>
