<svg width="606" height="613" viewBox="0 0 606 613" fill="none" xmlns="http://www.w3.org/2000/svg">
    <g clip-path="url(#clip0_201_789)">
        <path d="M141.1 136.163L143.455 135.201L146.162 135.499L149.32 137.271L154.733 143.795H162.631L163.755 138.165L167.594 137.569H170.981L179.774 142.901L181.578 141.129H183.612L186.548 143.199L188.352 146.163L188.574 152.092L188.154 154.85L187.901 156.53L192.864 162.749L194.439 166.89L201.205 174.881L206.848 176.653L217.675 178.425L217.224 183.162L215.649 189.067L212.713 194.385L209.555 198.525H206.848L207.521 207.089L203.92 214.759V223.606L202.788 227.441L196.694 227.151L194.89 231.864L184.063 243.942L181.127 246.005L180.454 248.068L181.578 250.131H184.063L186.77 248.656H189.476L190.83 251.009L191.281 253.958L189.255 259.84L187.985 261.727L184.063 268.374V271.972L180.882 271.476L177.465 269.352L162.295 263.614L157.898 258.083L156.752 257.442L155.612 257.869L150.069 264.462L147.622 265.738H145.344L142.408 264.462L140.94 261.483L139.311 260.421L137.514 261.055L138.493 276.365L136.207 278.061L119.087 277.641L113.383 275.937L101.318 273.813L93.328 271.262L85.8273 270.628L77.5084 263.821L75.0617 263.187L74.5724 259.573L72.4544 258.931H67.4004L63.8145 258.297L57.9423 255.532L47.0162 256.38L42.7803 258.931L41.7099 260.222L35.5778 257.48L35.3255 253.576L34.0639 249.397L25.9744 241.139L25.248 239.718L25.8827 237.105L31.9765 226.937L31.5636 222.261L30.3862 219.572L29.5986 218.312L27.3889 216.7L30.9673 216.31L38.5062 214.339L44.7912 209.075L46.5574 205.783L51.3362 202.498L58.6228 201.833L61.1384 201.176L63.6539 199.534L65.6648 199.205L68.4326 201.176L72.7068 202.498L76.9809 202.162L78.7395 200.848H81.0027L84.2752 202.162L87.2877 204.469H92.5711L98.3514 201.176H101.624L105.141 202.162L109.668 206.776L113.185 207.104L115.196 205.783L117.459 205.126H121.488L124.248 206.111H127.773L135.565 203.155L138.332 200.519H140.596L141.605 197.883V195.255L137.323 190.313L137.078 187.348V183.063L139.342 177.134L130.289 175.82V170.541L129.532 168.234L123.751 159.326L123.499 155.698L124.248 152.069L126.764 149.097L130.541 146.125L134.563 145.132L140.343 144.804L141.1 136.163Z" fill="#7F6CED" fill-opacity="0.44"/>
        <path d="M178.407 324.976L177.314 322.951L175.226 320.827L170.195 319.422L167.871 317.924L169.392 306.19L169.232 303.646L164.667 297.702L164.178 294.944L164.828 292.4L166.617 291.338L171.021 290.911L179.34 291.125L183.576 291.759L185.212 293.248L186.84 293.669L187.139 293.05L192.185 298.054L195.121 299.23L198.952 299.52L201.888 300.987L205.497 304.799L206.85 305.388L207.982 304.799L211.812 300.399L215.651 300.109L217.677 299.23L221.286 295.701L225.804 292.767L229.75 286.449L229.299 297.022L231.776 300.842L236.746 302.309L240.577 302.019L242.159 301.43V298.489L243.283 297.32H245.99L248.024 294.967L250.05 294.379L252.757 294.677L253.667 291.736L255.242 289.39L268.668 288.657L271.826 281.606L275.205 280.131L278.814 280.429L282.882 278.664L301.148 279.253L302.02 278.573L303.067 279.108V280.574L300.361 295.265V302.897L316.379 327.237L316.157 338.666L317.281 341.89V347.153L316.157 356.817L317.671 359.522L317.962 360.034L311.868 364.128L309.383 368.216L308.259 371.73L307.655 377.184H306.195L301.477 380.477L299.298 383.296L297.639 387.758L293.303 390.454L288.93 392.219L286.047 392.907L274.892 393.105L263.492 394.351L256.977 395.237L251.579 396.94L249.698 396.681L248.735 395.665L249.056 391.868L247.244 390.813L244.614 390.928L243.612 387.055L241.089 383.609L240.003 382.922L237.862 383.64L237.985 381.654L239.17 378.598L237.396 377.215L236.096 377.253L234.605 378.468L233.015 378.651L222.777 371.821L223.786 370.011L223.526 368.636L220.177 369.797L218.961 369.331L218.388 368.506L218.074 363.158L216.79 360.874L213.64 358.651L211.835 356.504L210.566 349.972L207.324 346.267L203.983 344.372L197.438 334.808L193.034 333.532L191.061 331.324L184.187 326.152H180.005L178.407 324.976Z" fill="#7F6CED" fill-opacity="0.44"/>
        <path d="M41.7103 260.222L42.7808 258.931L47.0167 256.38L57.9428 255.532L63.8149 258.297L67.4009 258.931H72.4549L74.5728 259.573L75.0622 263.187L77.5089 263.821L85.8278 270.628L93.3285 271.262L101.319 273.813L113.384 275.937L119.088 277.641L136.207 278.061L138.493 276.365L137.515 261.055L139.312 260.421L140.94 261.483L142.408 264.462L145.344 265.738H147.623L150.069 264.462L155.613 257.869L156.752 257.442L157.899 258.083L162.295 263.614L177.465 269.352L180.883 271.476L184.064 271.972L184.966 272.117L186.105 276.151L187.734 278.489L186.426 287.404L187.818 288.367L187.65 291.973L187.137 293.05L186.839 293.669L185.21 293.248L183.574 291.759L179.338 291.125L171.019 290.911L166.615 291.338L164.826 292.4L164.176 294.944L164.666 297.702L169.23 303.646L169.391 306.19L167.869 317.924L165.14 316.434L163.328 316.511L161.898 317.282L160.95 316.022L159.26 315.541L158.09 314.158L154.359 313.761L150.375 314.601L149.565 315.777L148.089 315.525L146.766 317.091L142.745 316.862L141.452 317.359L140.673 319.292L137.041 319.643L133.485 318.596L128.707 319.2L126.787 317.81L117.712 319.88L107.183 320.468L104.828 320.354L102.917 319.528L98.4131 321.5L94.7889 321.056L86.2254 321.576L81.0949 319.368L77.8989 316.778L71.6903 314.104L69.84 312.439L67.1868 311.614L60.3742 306.442L54.1886 307.229L50.6179 306.404L46.2368 302.561L39.9059 299.948L37.2145 296.518L36.8398 293.966L37.5509 290.964L40.0817 287.465L49.6469 284.891L49.7157 283.355L48.4235 281.583L41.2286 275.777L37.5127 271.514L37.3292 270.215L38.0556 269.505L43.6066 269.1L43.5607 261.995L41.7103 260.222Z" fill="#7F6CED" fill-opacity="0.44"/>
        <path d="M184.064 271.972V268.374L187.987 261.728L190.831 264.845L199.632 264.547L209.556 261.017H212.943L214.748 261.903L216.323 266.9L219.481 268.664L229.183 276.9L231.439 280.72L230.766 285.128L229.749 286.449L225.804 292.767L221.285 295.701L217.676 299.23L215.65 300.109L211.812 300.399L207.981 304.8L206.85 305.388L205.496 304.8L201.887 300.987L198.951 299.521L195.121 299.23L192.185 298.054L187.138 293.05L187.65 291.973L187.819 288.367L186.427 287.404L187.735 278.489L186.106 276.151L184.967 272.117L184.064 271.972Z" fill="#7F6CED" fill-opacity="0.44"/>
        <path d="M389.397 177.86L387.852 178.219L386.675 177.15L383.678 165.843L385.49 161.794L388.579 158.341L395.292 159.174L399.016 163.337L398.197 169.525L397.02 171.068L395.567 171.901L393.029 172.375L391.308 176.897L389.397 177.86ZM259.637 163.933L261.976 164.552L268.124 164.078L270.295 161.465L274.462 158.517L276.848 155.369L278.392 154.3L282.422 156.003L289.38 160.969L294.005 161.687L297.01 160.518L303.089 159.93L315.04 147.271L322.028 143.933L324.719 143.971L329.636 142.466L335.064 141.755L341.036 142.703L346.465 144.368L352.436 147.218L363.943 158.02L362.98 159.739L362.667 162.581L363.087 163.91L366.551 166.072L367.461 167.379L366.75 173.253L368.447 174.239L369.915 176.187L375.359 176.424L378.081 178.326L379.893 181.298L379.442 182.726L377.446 183.918L376.903 185.584L377.905 188.555L376.361 189.984L375.909 191.764L376.636 195.805L379.557 200.084L387.31 206.088L388.824 206.371L389.611 207.288L389.336 210.259L391.515 211.566L393.243 214.538L400.415 218.808L403.351 219.014L405.499 218.457L408.313 220.237L411.761 224.63L414.759 226.287L415.393 229.488L416.846 232.216L418.299 233.4L426.557 233.522L430.747 236.723L433.468 237.556L435.686 237.38L439.44 238.618L442.07 240.749L443.592 243.622L459.236 248.098L460.688 248.931L463.127 252.354L471.936 252.124L477.112 255.914L477.135 260.337L475.093 261.743L473.595 261.315L473.488 263.08L477.831 267.763L480.973 272.033L481.325 273.355L479.092 276.8L478.473 279.734L477.127 290.047L477.211 293.875L476.485 295.173L475.307 295.762L473.098 295.785L467.608 298.695L467.508 300.964L468.51 302.851L468.327 306.274L466.874 312.057L464.098 316.243L463.701 318.642L463.051 319.467L461.95 320.109L459.58 319.742L456.223 321.645L455.076 325.739L453.807 326.213L452.507 326.06L449.265 321.614L446.635 318.902L444.999 317.962L442.093 319.139L440.51 318.352L426.778 318.467L423.965 317.053L422.879 317.168L421.243 318.467L418.88 319.292L412.618 319.406L410.905 321.041L409.812 326.129L405.324 326.19L404.421 324.922L401.485 323.455L395.391 323.165L394.038 327.565L389.527 331.079L380.054 333.425L358.171 334.601L340.126 341.041L330.202 348.658L322.303 357.436L318.916 359.483L317.731 359.56L316.209 356.848L317.341 347.191V341.92L316.209 338.696L316.439 327.267L300.42 302.928V295.296L303.127 280.605V279.138L302.08 278.603L301.208 276.64L297.37 274.287L294.441 274.585L291.735 273.118L288.355 268.412L287.002 259.29L284.096 254.37L276.267 217.922L278.423 214.66L282.429 210.947L282.261 210.084L276.167 208.907L274.363 208.021L269.913 203.98L267.757 197.593L266.51 191.352L265.149 188.976L264.24 187.7L258.796 185.859L258.65 163.712L259.637 163.933Z" fill="#7F6CED" fill-opacity="0.44"/>
        <path d="M258.59 163.673L258.735 185.82L264.186 187.661L265.089 188.93L266.45 191.306L267.696 197.547L269.852 203.934L274.302 207.975L276.107 208.854L282.2 210.038L282.369 210.901L278.362 214.614L276.206 217.884L284.035 254.332L286.941 259.252L288.294 268.374L291.674 273.08L294.38 274.546L297.317 274.256L301.147 276.609L302.019 278.573L301.147 279.252L282.881 278.664L278.813 280.429L275.204 280.131L271.825 281.605L268.667 288.657L255.241 289.39L253.666 291.735L252.756 294.677L250.049 294.379L248.023 294.967L245.989 297.32H243.282L242.158 298.489V301.43L240.576 302.018L236.745 302.309L231.775 300.842L229.298 297.022L229.749 286.449L230.766 285.127L231.439 280.719L229.183 276.899L219.48 268.664L216.322 266.899L214.747 261.903L212.943 261.017H209.556L199.631 264.546L190.831 264.844L187.986 261.727L189.256 259.84L191.282 253.958L190.831 251.009L189.477 248.656H186.771L184.064 250.13H181.579L180.455 248.068L181.128 246.005L184.064 243.942L194.891 231.864L196.695 227.15L202.789 227.441L203.921 223.606V214.759L207.522 207.089L206.849 198.525H209.556L212.714 194.384L215.65 189.067L217.225 183.162L217.676 178.425L206.849 176.653L201.206 174.88L194.44 166.889L192.865 162.749L187.902 156.53L188.155 154.849L193.988 150.014L197.597 147.943L212.041 147.057L213.394 148.241L215.65 148.83H219.259L221.514 147.347H224.901L231.668 149.425L239.559 153.566L244.903 155.377L246.478 157.592L252.266 159.112L254.239 160.365L254.438 162.153L255.531 163.314L256.043 163.047L258.59 163.673Z" fill="#7F6CED" fill-opacity="0.44"/>
        <path d="M272.383 10.225L272.742 12.8224L274.371 14.74L277.445 15.9394L279.433 17.3756L280.878 19.7668L280.342 22.158L275.816 27.1848L272.199 28.8579L270.211 29.1024L266.228 32.9298L269.944 37.2691L274.302 39.6144L276.886 42.3112L279.203 42.6703L281.658 44.542L284.509 47.1471L285.06 48.8583L283.898 53.5337L283.018 55.329L281.245 57.1243L274.103 60.99L270.762 61.5324L267.428 62.9686L263.345 63.236L260.149 64.5806L257.626 67.5447L256.609 71.227L256.54 74.0995L257.626 78.7673L261.984 81.6398L273.079 84.1226L275.051 85.0165L277.299 88.5154V91.0288L276.275 93.3589L272.536 95.7806L269.065 105.368L268.04 112.359L266.274 114.597L263.139 116.385L261.441 118.172L252.457 123.153L249.323 128.524L248.78 133.085L249.667 134.162L254.224 135.95L254.637 137.019L251.096 140.686L251.433 142.833L253.841 147.218L257.16 150.587L256.349 152.558L256.793 154.071L255.187 159.288L254.239 160.366L252.266 159.113L246.478 157.592L244.903 155.377L239.559 153.566L231.668 149.426L224.901 147.348H221.514L219.259 148.83H215.65L213.394 148.242L212.041 147.057L197.597 147.944L193.988 150.014L188.155 154.85L188.575 152.092L188.353 146.164L186.549 143.199L183.613 141.129H181.579L179.775 142.902L170.982 137.569H167.594L163.756 138.165L162.632 143.795H154.734L149.321 137.271L146.163 135.499L143.456 135.201L141.101 136.163V134.559H138.333L133.302 135.552L129.533 135.224L129.28 133.574L129.785 132.252L129.28 130.594L123.5 127.951L117.215 128.944L114.699 125.636L113.186 121.671L112.436 109.761L114.195 106.117L117.964 102.809L120.48 101.487L123.5 100.494H127.269L130.037 98.5003L131.796 96.1855V92.2129L130.787 90.219H134.311L136.827 87.5681L139.839 81.9377L140.092 79.6153L139.09 78.286L137.079 77.9575L130.037 78.9506L126.765 78.286L126.016 76.6282L126.513 67.3461L124.502 64.359L121.741 63.3582L120.984 59.0495L119.478 56.7194L118.217 56.0548H115.701L112.689 54.7332L110.678 53.4039L108.414 50.7453L108.162 36.4593L110.104 30.9741L116.871 28.3842L130.068 28.9343L133.707 28.2773L135.802 22.5094L137.095 16.0234L138.089 15.0226L139.182 14.9844L141.522 17.0929L142.844 17.4596L146.988 16.9784L149.596 19.0792L150.735 21.4857L152.884 22.6851L155.95 23.5866L158.106 23.4338L159.681 22.1733L161.248 22.3795L163.076 23.1741L165.935 25.9854L168.084 25.8403L168.879 24.1825L169.559 18.9341L170.699 17.8034L175.302 20.4238L180.073 25.8403L184.117 27.0702L188.85 29.8587L189.936 31.2414L193.071 30.8824L199.042 27.4828L202.835 20.3474L204.127 20.08L205.014 20.6148L203.791 27.4599L205.289 27.6432L208.141 25.2062L212.232 24.3964L213.524 25.6569L213.86 27.0091L214.885 27.6432L215.902 26.9174L218.15 16.1991L218.968 15.5727H220.191L222.302 16.9249L225.23 17.1006L229.313 16.9249L230.674 16.0234H231.897L233.19 19.9883L234.076 20.8898L239.207 21.3864L239.773 21.9746L239.956 24.1137L240.935 24.6332L244.674 21.3176L252.694 21.0273L254.285 21.6614L257.137 20.7447L263.544 23.4338L267.872 24.1978L270.487 24.0526L273.606 22.8532L272.666 20.5002L271.068 19.9196L268.598 20.928L264.637 18.9494L260.142 18.2847L255.89 13.4794L255.455 6.84827L255.822 4.34249L257.167 1.17206L258.398 0.209473L260.723 0.835918L264.645 5.69469L269.325 6.6038L272.268 8.23867L272.383 10.225Z" fill="#7F6CED" fill-opacity="0.44"/>
        <path d="M49.6937 124.314L48.9368 121.022L44.4868 114.818L43.4928 109.081L43.5846 105.376L44.5786 100.242L43.3093 97.973L42.95 92.2357L38.5917 88.8819L32.8725 83.2591L25.2342 78.6525L21.1053 78.0872L17.8711 74.6875L15.2561 72.8846L12.6489 71.9908L6.75379 71.731L5.99684 69.6683L4.75054 68.4766L4.97992 59.7904L4.41412 57.5443L2.70906 54.8475L0.896958 53.7245L0.201172 50.4548L3.38955 43.9611L7.06728 43.9688L9.80455 42.4867L16.0513 40.9893L20.1343 39.1864L24.1561 39.4843L30.7087 43.6861L33.6601 42.4867L42.3842 41.7762L45.2285 42.1811L58.3643 48.7817L64.6799 40.6685L70.4756 36.6959L74.1533 34.9846L83.2291 34.0908L86.0658 33.0365L91.395 32.5858L94.5681 33.3345L95.9367 34.5339L97.6341 34.6867L103.759 30.187L105.915 30.4849L109.088 30.0342L110.105 30.9739L108.163 36.4591L108.415 50.7451L110.678 53.4037L112.689 54.733L115.702 56.0546H118.217L119.479 56.7192L120.985 59.0493L121.742 63.358L124.502 64.3588L126.513 67.3459L126.016 76.628L126.765 78.2858L130.038 78.9504L137.08 77.9573L139.091 78.2858L140.092 79.6151L139.84 81.9375L136.828 87.5679L134.312 90.2188H130.787L131.796 92.2127V96.1853L130.038 98.5001L127.27 100.494H123.501L120.48 101.487L117.965 102.809L114.195 106.117L112.437 109.761L113.186 121.671L114.7 125.636L117.216 128.944L123.501 127.951L129.281 130.594L129.786 132.252L129.281 133.573L129.533 135.224L133.303 135.552L138.334 134.559H141.102V136.163L140.345 144.804L134.564 145.132L130.543 146.125L126.765 149.097L124.25 152.069L123.501 155.698L123.753 159.326L129.533 168.234L130.29 170.541V175.82L139.343 177.134L137.08 183.063V187.348L137.325 190.313L141.606 195.255V197.883L140.597 200.519H138.334L135.566 203.155L127.775 206.111H124.25L121.49 205.126H117.46L115.197 205.783L113.186 207.104L109.669 206.776L105.143 202.162L101.625 201.176H98.3529L92.5725 204.469H87.2891L84.2766 202.162L81.0041 200.848H78.7409L76.9823 202.162L72.7082 202.498L68.4341 201.176L65.6662 199.205L63.6553 199.534L61.1398 201.176L58.6243 201.833L51.3376 202.498L46.5589 205.783L44.7926 209.075L38.5076 214.339L30.9687 216.31L27.3904 216.7L23.315 212.674L19.7826 211.849L17.8023 209.778L17.5958 207.555L19.3697 206.936L19.622 204.14L23.3456 202.291L30.8769 195.897L31.6798 195.561L32.1309 196.485L33.1019 196.944L34.05 192.498L35.6404 193.888L37.1237 193.957L35.9845 187.089L41.3137 185.484L44.8538 181.321L47.3005 175.614L48.3939 174.781L49.8467 170.022L51.2917 168.471L52.3851 165.499L52.7445 161.924L54.656 160.618L56.5904 156.691L55.4206 154.277L56.1011 153.887L56.2846 150.19L55.0154 147.516L56.3305 142.833L55.1759 138.577L49.6937 124.314Z" fill="#7F6CED" fill-opacity="0.44"/>
        <path d="M451.04 438.523L449.312 431.685L445.222 427.812L439.686 425.94L433.087 424.947L432.223 415.749L432.078 404.32L435.121 396.451L434.395 391.386L432.95 387.826L433.531 380.508L437.293 373.747L445.122 363.609L450.597 360.263L453.326 367.826L457.868 368.3L463.037 370.416L469.941 375.106L475.744 376.054H479.46L481.548 377.352L485.623 381.936L486.197 385.122L487.313 387.246L491.87 391.501L493.346 395.351L498.17 398.354L497.176 400.569L497.903 403.266L499.08 404.328L502.528 401.86L504.44 402.212L511.153 409.492L513.6 410.661L516.781 413.358L518.073 415.993L517.415 418.285L518.554 421.265L518.776 426.758L520.68 426.139L522.5 423.442L527.668 422.976L534.473 423.793L538.923 420.042L545.996 416.177L555.507 415.459L556.387 419.729L557.48 421.135L560.539 420.791L564.644 416.444L565.738 416.91L565.256 419.194L566.005 421.723V425.123L564.92 428.515L566.005 430.509L570.241 431.723L571.893 430.257L574.668 431.196L576.916 429.302L586.55 428.087L593.233 431.685L595.228 433.205L596.406 435.551L597.224 439.057L596.773 440.234H594.051L592.652 438.492L590.702 438.53L589.494 439.118L587.491 442.067L582.177 445.245L582.001 446.834L582.903 449.424L589.005 455.322L590.358 457.774L588.622 457.996L587.093 457.087L583.652 456.246L582.444 454.298L580.701 453.573L578.124 455.437L574.691 461.411L573.552 462.106L567.015 460.525L563.467 460.654L562.129 462.549L561.54 465.513L559.346 467.973L559.743 475.047L562.557 479.486L563.834 482.87L565.463 483.925L566.457 483.902L574.691 490.51L576.679 491.503L578.744 490.411L581.328 487.813L582.062 487.874L587.521 495.063L587.605 497.233L585.426 499.104L585.159 500.732L590.618 509.51L595.917 511.351L597.102 514.804L598.57 516.507L604.45 517.019L605.314 517.241L605.765 518.165L604.832 518.975L598.86 518.86L595.228 520.136L595.596 521.886L595.099 523.528L592.461 527.806L590.434 529.457L588.699 532.138L587.063 530.977L585.426 522.94L583.247 522.153L581.71 524.04L582.437 527.715L581.978 528.532L580.525 528.295L578.445 525.919L574.791 524.216L570.845 524.094L569.439 525.698L569.416 530.305L571.09 535.072L573.651 535.576L576.236 537.195L579.187 535.935L580.823 536.943L579.325 539.625L579.394 541.474L582.513 543.613L582.528 546.309L583.316 547.99L586.351 549.694L588.102 552.322L587.873 554.018L586.107 555.202L585.465 557.379L586.688 558.861L590.182 559.526L587.789 562.811L587.605 564.209L589.601 573.163L584.975 574.782L584.7 577.227L585.61 580.474L584.234 582.177L581.619 583.614L581.527 585.355L581.802 587.907L584.341 591.276L587.789 597.54L589.303 603.637L587.399 605.05L585.602 604.5L585.128 601.23L584.356 600.497L577.819 601.551L575.311 600.757L573.078 598.877L572.176 598.763L569.92 599.343L566.732 599.076L565.554 600.581L564.331 600.703L555.209 593.965L553.214 593.155H550.584L548.68 593.851L544.773 597.449L543.228 596.868L539.053 596.983L538.442 599.466L538.969 602.086L537.608 603.942L535.972 603.828L536.331 599.42L535.246 597.8H534.428L533.158 598.839L532.157 601.742V604.057L531.254 604.523L528.984 604.057L528.257 605.799L530.031 608.839V610.459L529.121 611.391L527.577 610.459L527.019 609.038L526.866 608.633L525.038 607.564H523.31L521.047 608.954L519.411 612.201L517.599 611.276L517.683 608.373L516.414 607.449L514.586 612.797L511.788 612.552L512.698 600.604L511.696 596.777L509.157 593.064L507.613 588.075L505.709 579.129L505.09 573.178L505.273 569.221L500.625 565.363L499.99 563.384L500.173 554.201L498.996 552.108L494.179 549.892L490.937 547.264L490.532 544.965L491.052 539.709L487.374 534.758L488.276 529.304L485.623 526.615V522.321L484.988 519.586L484.79 511.259L485.623 509.005L487.015 508.471L487.374 504.735L487.106 501.587L485.86 499.563L479.529 498.043L475.171 494.887L473.267 492.672L470.086 491.854L464.551 487.416L461.194 485.552L459.994 483.993L451.048 482.863L449.84 482.443L447.156 479.562L446.445 477.653L446.69 474.07L449.098 469.333L455.483 460.418V457.728L454.45 454.428L452.455 452.32L451.843 450.479L452.439 442.564L451.04 438.523Z" fill="#7F6CED" fill-opacity="0.44"/>
        <path d="M363.92 158.02L352.421 147.218L346.449 144.368L341.021 142.703L335.057 141.755L329.628 142.466L324.712 143.971L322.02 143.933L315.032 147.271L303.081 159.922L297.003 160.51L293.998 161.679L289.372 160.969L282.414 156.003L278.392 154.299L276.848 155.369L274.47 158.516L270.295 161.465L268.131 164.07L261.976 164.552L259.637 163.933L256.043 163.047L255.531 163.314L254.437 162.153L254.239 160.365L255.187 159.288L256.792 154.07L256.349 152.558L257.159 150.587L253.841 147.218L251.432 142.832L251.096 140.686L254.636 137.019L254.223 135.949L249.666 134.161L248.779 133.084L249.322 128.523L252.457 123.153L261.441 118.172L263.138 116.384L266.273 114.597L268.04 112.358L269.064 105.368L272.535 95.7802L276.274 93.3585L277.299 91.0284V88.515L275.051 85.0161L273.078 84.1222L261.984 81.6394L257.626 78.7669L256.54 74.0991L256.609 71.2266L257.626 67.5443L260.149 64.5802L263.345 63.2356L267.428 62.9682L270.762 61.532L274.103 60.9896L281.244 57.124L283.018 55.3287L283.897 53.5334L285.06 48.8579L284.509 47.1467L281.657 44.5416L279.203 42.6699L276.886 42.3108L274.302 39.614L269.943 37.2687L266.227 32.9294L270.211 29.102L272.199 28.8575L275.816 27.1844L280.342 22.1576L280.877 19.7664L279.432 17.3752L277.444 15.939L274.37 14.7396L272.742 12.822L272.382 10.2246L272.268 8.23829L273.499 6.84788L275.319 7.94798L276.832 10.4156L280.831 11.4775L284.693 11.508L285.778 10.7364L288.064 6.84788L295.993 0.774414L297.477 1.78284L299.014 7.25278L303.28 12.9977L303.448 14.8465L301.904 20.3547L298.356 23.0056L298.593 24.8162L300 25.4121L302.362 24.8162L304.496 27.215L306.491 28.2998L308.036 30.5764L310.169 30.5153L311.438 29.377L312.356 26.94L314.978 26.3135L316.385 24.7551L317.333 24.5717L320.101 26.6191L324.926 33.1128L330.423 34.0142L331.96 35.6338L332.419 39.2932L331.287 40.103L328.948 43.4415L320.491 46.5584L311.117 47.6891L308.823 49.3621L307.057 52.2575L305.451 57.7199L303.578 60.4625L304.419 63.419L306.117 64.6719L308.54 64.5038L312.18 61.8911L314.03 61.8299L315.682 62.5633L317.05 62.0362L317.716 56.933L316.89 54.1292L318.021 52.7159L319.467 52.5631L323.611 54.8397L324.383 56.1537L324.521 57.5976L323.481 60.8903L323.978 62.6856L327.388 62.2807L332.878 64.3204L335.324 68.7514L338.658 72.3573L341.992 71.2037L344.354 67.1318L347.229 66.4901L348.46 67.4909L349.775 71.9218L352.084 74.9089L357.811 74.5575L361.573 75.9326L362.666 75.5124L363.997 73.4498L371.658 69.4466L376.169 68.8889L377.079 69.2633L377.997 70.8064L377.14 72.6018L375.458 74.7561L370.924 78.1634L371.054 79.6607L373.096 83.7326L375.795 84.6494L379.404 82.9992L380.55 83.0985L383.502 85.9099L385.627 89.1949L385.406 90.6312L384.542 91.7695L385.176 93.3814L389.672 93.9773L391.033 94.8711L393.526 98.1638L396.836 99.898L398.97 99.9514L400.101 100.67L400.468 103.061L401.554 104.26L404.23 102.282H405.637L407.09 103.061L408.076 104.413L410.087 110.441L410.225 113.672L409.001 115.582L407.908 118.982L403.007 123.458L399.467 128.287L398.878 130.494L397.295 132.168L390.123 132.939L385.13 137.477L379.595 138.035L375.695 139.349L369.708 143.039L368.164 145.185L368.072 147.095L368.89 149.952L367.621 151.267L366.711 150.907L366.077 149.479L363.989 149.716L363.92 158.02Z" fill="#7F6CED" fill-opacity="0.44"/>
        <path d="M312.395 378.292L311.095 377.421L307.654 377.184L308.258 371.73L309.382 368.215L311.867 364.128L317.961 360.033L317.671 359.522L318.863 359.445L322.243 357.398L330.141 348.62L340.066 341.003L358.118 334.563L380.001 333.394L389.474 331.049L393.985 327.535L395.339 323.134L401.433 323.425L404.361 324.891L405.271 326.16L409.851 326.152L411.028 330.927L412.305 331.637L420.739 331.286L422.826 332.225L429.088 332.936L433.355 335.999L434.532 337.527L441.612 338.001L443.7 338.352L444.877 339.177L446.422 340.828L447.523 344.051V344.999L445.703 346.641L445.252 347.94L445.978 349.942L449.426 355.358L450.596 360.263L445.122 363.609L437.292 373.746L433.53 380.508L432.949 387.826L434.394 391.386L435.121 396.451L432.078 404.32L432.223 415.749L433.087 424.947L430.12 423.358L428.438 423.19L425.869 425.275L424.332 427.331L419.531 428.4L414.905 432.036L407.825 430.982L406.288 432.036L403.833 436.483L401.295 437.888L399.116 437.774L397.479 439.18L396.914 441.319L390.499 445.734L388.228 447.728L387.838 448.935L382.05 448.492L379.251 442.847L377.546 441.219L373.364 441.349L370.512 439.18L363.707 439.409L361.895 438.362L356.535 433.442L352.842 424.718L349.493 422.25L344.11 421.524L342.421 422.441L339.729 425.719L338.062 428.942L335.784 429.195L330.225 426.643L330.294 415.657L331.67 412.693L329.858 411.051L329.767 408.002L331.693 405.749L330.409 401.768L327.587 399.736L324.896 395.787L323.007 390.584L319.345 384.77L314.1 380.668L312.395 378.292Z" fill="#7F6CED" fill-opacity="0.44"/>
    </g>
    <defs>
        <clipPath id="clip0_201_789">
            <rect width="606" height="613" fill="white"/>
        </clipPath>
    </defs>
</svg>
