<svg width="586" height="89" viewBox="0 0 586 89" fill="none" xmlns="http://www.w3.org/2000/svg">
<path d="M70.9295 35.9515H17.7501V18.3992H84.7509V0.846936H17.5726C15.2769 0.834484 13.0026 1.27519 10.8773 2.14391C8.75199 3.01274 6.81722 4.29252 5.18658 5.91029C3.55475 7.52806 2.25663 9.45217 1.36676 11.5726C0.476885 13.6931 0.0118334 15.9684 0 18.2687V36.0582C0.00946673 38.3605 0.470972 40.6385 1.35966 42.7616C2.24835 44.8848 3.54529 46.8117 5.17712 48.4319C6.81013 50.0523 8.74489 51.3342 10.8714 52.2045C12.9978 53.0747 15.2758 53.5163 17.5726 53.5037H70.823V71.056H1.26618V88.6082H70.9295C73.2252 88.6208 75.4995 88.18 77.6248 87.3113C79.7501 86.4424 81.6849 85.1627 83.3155 83.5449C84.9473 81.9271 86.2454 80.0031 87.1353 77.8826C88.0252 75.7621 88.4902 73.4867 88.5021 71.1864V53.397C88.4926 51.0947 88.0311 48.8168 87.1424 46.6936C86.2537 44.5703 84.9568 42.6435 83.325 41.0232C81.6919 39.403 79.7572 38.1211 77.6307 37.2508C75.5043 36.3805 73.2263 35.939 70.9295 35.9515Z" fill="white"/>
<path d="M173.952 0.847259H120.571C118.272 0.828521 115.992 1.2646 113.86 2.13059C111.73 2.99658 109.791 4.27529 108.154 5.89377C106.517 7.51214 105.215 9.43826 104.323 11.5618C103.429 13.6854 102.963 15.9647 102.951 18.2691V71.1868C102.963 73.4911 103.429 75.7704 104.323 77.894C105.215 80.0176 106.517 81.9437 108.154 83.562C109.791 85.1805 111.73 86.4592 113.86 87.3252C115.992 88.1912 118.272 88.6273 120.571 88.6086H173.952C176.247 88.621 178.522 88.1803 180.647 87.3116C182.772 86.4428 184.707 85.163 186.338 83.5452C187.97 81.9274 189.268 80.0033 190.158 77.8829C191.047 75.7624 191.512 73.4871 191.524 71.1868V18.2691C191.512 15.9688 191.047 13.6934 190.158 11.5729C189.268 9.45249 187.97 7.52838 186.338 5.91061C184.707 4.29284 182.772 3.01307 180.647 2.14423C178.522 1.27551 176.247 0.834806 173.952 0.847259ZM173.821 71.0563H120.701V18.3995H173.798L173.821 71.0563Z" fill="white"/>
<path d="M360.919 0.847H308.852C306.556 0.834547 304.282 1.27525 302.157 2.14397C300.031 3.01281 298.097 4.29258 296.466 5.91035C294.834 7.52813 293.536 9.45223 292.646 11.5726C291.756 13.6931 291.291 15.9685 291.279 18.2688V88.6083H309.029V59.7775H360.86V88.6083H378.61V18.2688C378.598 15.9584 378.129 13.6733 377.232 11.545C376.334 9.41677 375.027 7.48745 373.382 5.86801C371.738 4.2487 369.79 2.97142 367.651 2.1097C365.511 1.24797 363.224 0.818892 360.919 0.847ZM360.789 42.2253H308.958V18.3993H360.789V42.2253Z" fill="white"/>
<path d="M568.181 0.846936H516.114C513.818 0.834484 511.544 1.27519 509.418 2.14391C507.293 3.01274 505.359 4.29252 503.728 5.91029C502.096 7.52806 500.798 9.45217 499.908 11.5726C499.018 13.6931 498.553 15.9684 498.541 18.2687V88.6083H516.291V59.7775H568.003V88.6083H585.753V18.2687C585.741 15.9684 585.276 13.6931 584.386 11.5726C583.497 9.45217 582.199 7.52806 580.567 5.91029C578.935 4.29252 577.001 3.01274 574.876 2.14391C572.751 1.27519 570.476 0.834484 568.181 0.846936ZM568.003 42.2252H516.173V18.3992H568.003V42.2252Z" fill="white"/>
<path d="M465.053 71.0559H457.953L432.57 8.19981C431.701 6.03127 430.204 4.17275 428.273 2.86273C426.341 1.5526 424.063 0.850627 421.731 0.846832H405.981C404.449 0.839004 402.932 1.13348 401.516 1.7133C400.098 2.29323 398.81 3.14713 397.721 4.22635C396.634 5.3057 395.768 6.58903 395.176 8.00341C394.583 9.41767 394.274 10.9352 394.266 12.4693V88.6081H412.016V18.3991H419.116L444.487 81.2552C445.371 83.4196 446.879 85.2705 448.819 86.5717C450.757 87.8731 453.04 88.5654 455.373 88.5607H471.124C472.655 88.5685 474.172 88.2742 475.588 87.6942C477.006 87.1144 478.295 86.2604 479.383 85.1812C480.471 84.102 481.336 82.8185 481.929 81.4042C482.522 79.9899 482.83 78.4724 482.839 76.9383V0.846832H465.053V71.0559Z" fill="white"/>
<path d="M224.953 0.84668H207.203V71.1862C207.215 73.4916 207.682 75.7718 208.576 77.8961C209.469 80.0205 210.772 81.9471 212.41 83.5657C214.048 85.1843 215.989 86.4628 218.121 87.3281C220.253 88.1934 222.534 88.6283 224.835 88.608H278.085V71.0557H224.953V0.84668Z" fill="white"/>
</svg>
